<svg xmlns="http://www.w3.org/2000/svg" width="17" height="15" viewBox="0 0 17 15" fill="none">
    <path fill-rule="evenodd" clip-rule="evenodd" d="M2.80166 0.593752C2.8122 0.593754 2.82276 0.593755 2.83336 0.593755L14.1984 0.593752C14.505 0.593716 14.7861 0.593683 15.0147 0.624425C15.2665 0.658279 15.5327 0.737929 15.7515 0.956821C15.9704 1.17571 16.0501 1.44185 16.0839 1.69365C16.1147 1.92231 16.1146 2.2034 16.1146 2.50998V2.57337C16.1146 2.87994 16.1147 3.16103 16.0839 3.38969C16.0501 3.64149 15.9704 3.90763 15.7515 4.12652C15.5435 4.33461 15.2927 4.41686 15.0521 4.45356V8.2483C15.0521 9.55004 15.0521 10.5811 14.9436 11.3881C14.832 12.2185 14.5967 12.8907 14.0666 13.4208C13.5366 13.9509 12.8644 14.1861 12.0339 14.2978C11.227 14.4063 10.1959 14.4063 8.89415 14.4063H8.1059C6.80415 14.4063 5.77308 14.4063 4.96613 14.2978C4.13567 14.1861 3.4635 13.9509 2.93341 13.4208C2.40331 12.8907 2.16807 12.2185 2.05641 11.3881C1.94792 10.5811 1.94793 9.55005 1.94794 8.2483L1.94794 4.45356C1.70737 4.41686 1.45659 4.33461 1.24851 4.12652C1.02962 3.90763 0.949966 3.64149 0.916112 3.38969C0.88537 3.16104 0.885403 2.87995 0.885439 2.57337C0.885441 2.56283 0.885442 2.55227 0.885442 2.54167C0.885442 2.53108 0.885441 2.52051 0.885439 2.50997C0.885403 2.2034 0.88537 1.92231 0.916112 1.69365C0.949966 1.44185 1.02962 1.17571 1.24851 0.956821C1.4674 0.737929 1.73354 0.658279 1.98534 0.624425C2.21399 0.593683 2.49508 0.593716 2.80166 0.593752ZM3.01044 4.48959V8.20834C3.01044 9.559 3.01157 10.5186 3.10944 11.2465C3.20525 11.9591 3.38493 12.3697 3.68471 12.6695C3.98448 12.9693 4.39506 13.1489 5.10771 13.2448C5.83564 13.3426 6.79519 13.3438 8.14586 13.3438H8.85419C10.2049 13.3438 11.1644 13.3426 11.8923 13.2448C12.605 13.1489 13.0156 12.9693 13.3153 12.6695C13.6151 12.3697 13.7948 11.9591 13.8906 11.2465C13.9885 10.5186 13.9896 9.559 13.9896 8.20834V4.48959H3.01044ZM1.99982 1.70813L2.00154 1.70716C2.00291 1.70644 2.00526 1.7053 2.00883 1.70383C2.02426 1.69748 2.05852 1.68665 2.12691 1.67745C2.27617 1.65738 2.48443 1.65626 2.83336 1.65626H14.1667C14.5156 1.65626 14.7239 1.65738 14.8731 1.67745C14.9415 1.68665 14.9758 1.69748 14.9912 1.70383C14.9948 1.7053 14.9971 1.70644 14.9985 1.70716L15.0002 1.70812L15.0012 1.70986C15.0019 1.71122 15.0031 1.71357 15.0045 1.71715C15.0109 1.73257 15.0217 1.76683 15.0309 1.83522C15.051 1.98449 15.0521 2.19274 15.0521 2.54167C15.0521 2.8906 15.051 3.09886 15.0309 3.24812C15.0217 3.31651 15.0109 3.35077 15.0045 3.3662C15.0031 3.36977 15.0019 3.37212 15.0012 3.37349L15.0002 3.37522L14.9985 3.37619C14.9971 3.3769 14.9948 3.37805 14.9912 3.37952C14.9758 3.38586 14.9415 3.3967 14.8731 3.40589C14.7239 3.42596 14.5156 3.42709 14.1667 3.42709H2.83336C2.48443 3.42709 2.27617 3.42596 2.12691 3.40589C2.05852 3.3967 2.02426 3.38586 2.00883 3.37952C2.00526 3.37805 2.00291 3.3769 2.00154 3.37619L1.99982 3.37521L1.99884 3.37349C1.99813 3.37212 1.99698 3.36977 1.99551 3.3662C1.98917 3.35077 1.97833 3.31651 1.96914 3.24812C1.94907 3.09886 1.94794 2.8906 1.94794 2.54167C1.94794 2.19274 1.94907 1.98449 1.96914 1.83523C1.97833 1.76683 1.98917 1.73257 1.99551 1.71715C1.99698 1.71357 1.99813 1.71122 1.99884 1.70986L1.99982 1.70813ZM1.99982 3.37521C1.99953 3.37492 1.99963 3.37498 1.99982 3.37521V3.37521ZM7.42211 5.90625H9.57794C9.72972 5.90625 9.86915 5.90624 9.98626 5.91423C10.1121 5.92281 10.2505 5.94237 10.3911 6.00061C10.6948 6.12642 10.9361 6.36774 11.0619 6.67147C11.1202 6.81208 11.1397 6.95044 11.1483 7.07627C11.1563 7.19338 11.1563 7.33281 11.1563 7.48459V7.51542C11.1563 7.6672 11.1563 7.80663 11.1483 7.92374C11.1397 8.04957 11.1202 8.18793 11.0619 8.32854C10.9361 8.63227 10.6948 8.87359 10.3911 8.9994C10.2505 9.05764 10.1121 9.0772 9.98626 9.08578C9.86915 9.09377 9.72972 9.09376 9.57794 9.09375H7.42211C7.27033 9.09376 7.1309 9.09377 7.01379 9.08578C6.88796 9.0772 6.7496 9.05764 6.60899 8.9994C6.30526 8.87359 6.06394 8.63227 5.93813 8.32854C5.87989 8.18793 5.86033 8.04957 5.85175 7.92374C5.84376 7.80663 5.84377 7.6672 5.84377 7.51542V7.48459C5.84377 7.33281 5.84376 7.19338 5.85175 7.07627C5.86033 6.95044 5.87989 6.81208 5.93813 6.67147C6.06394 6.36774 6.30526 6.12642 6.60899 6.00061C6.7496 5.94237 6.88796 5.92281 7.01379 5.91423C7.1309 5.90624 7.27033 5.90625 7.42211 5.90625ZM7.01345 6.98314C6.97178 7.00104 6.93856 7.03426 6.92066 7.07593C6.91933 7.08114 6.91501 7.10126 6.91178 7.1486C6.90656 7.2251 6.90627 7.32771 6.90627 7.5C6.90627 7.67229 6.90656 7.77491 6.91178 7.85141C6.91501 7.89875 6.91933 7.91887 6.92066 7.92408C6.93856 7.96575 6.97178 7.99897 7.01345 8.01687C7.01866 8.0182 7.03878 8.02252 7.08612 8.02575C7.16262 8.03097 7.26523 8.03125 7.43752 8.03125H9.56252C9.73481 8.03125 9.83743 8.03097 9.91393 8.02575C9.96127 8.02252 9.98138 8.0182 9.9866 8.01687C10.0283 7.99897 10.0615 7.96575 10.0794 7.92408C10.0807 7.91887 10.085 7.89875 10.0883 7.85141C10.0935 7.77491 10.0938 7.67229 10.0938 7.5C10.0938 7.32771 10.0935 7.2251 10.0883 7.1486C10.085 7.10126 10.0807 7.08114 10.0794 7.07593C10.0615 7.03426 10.0283 7.00104 9.9866 6.98314C9.98138 6.98181 9.96126 6.97749 9.91393 6.97426C9.83743 6.96904 9.73481 6.96875 9.56252 6.96875H7.43752C7.26523 6.96875 7.16262 6.96904 7.08612 6.97426C7.03878 6.97749 7.01866 6.98181 7.01345 6.98314Z" fill="#808080"/>
</svg>